<svg xmlns="http://www.w3.org/2000/svg" viewBox="0 0 250.273 123.302"><g data-name="Layer 2"><g data-name="ART"><path d="M83.645 59.905C61.347 54.852 36.423 49.063 9.526 42.688a.676.676 0 01-.25-1.199L59.104 4.02a.676.676 0 01.58-.112c.25.066 25.35 6.718 65.023 13.663l1.521-1.569C99.958 11.977 74.27 7.142 58.811 1.92L2.752 43.49l79.462 17.89 1.431-1.476z" fill="#cedd3e"/><path d="M129.662 61.194c20.383-1.924 36.183-11.796 35.219-22.007-.65-6.87-8.793-12.404-21.276-14.497-10.785 12.336-23.453 26.958-31.079 36.023a68.268 68.268 0 0017.136.481zM75.18 23.188a17.31 17.31 0 00-8.64-1.2c-6.369.602-11.471 4.065-11.141 7.562.156 1.652 1.477 3.123 3.721 4.143a17.328 17.328 0 008.64 1.2c6.368-.602 11.471-4.065 11.14-7.563-.155-1.651-1.477-3.123-3.72-4.142zM184.176 56.343a17.336 17.336 0 008.64 1.199c6.368-.601 11.47-4.065 11.14-7.562-.156-1.652-1.478-3.123-3.722-4.143a17.316 17.316 0 00-8.637-1.2c-6.37.602-11.472 4.065-11.142 7.563.156 1.652 1.478 3.123 3.721 4.143z" fill="#94a727"/><path d="M239.395 31.585a.676.676 0 01.583.923l-20.979 53.135a.676.676 0 01-.628.428.613.613 0 01-.09-.006c-.131-.018-14.315-1.966-109.716-20.585-.474.58-.885 1.091-1.25 1.552l115.596 26.023c7.865-19.304 22.142-55.728 22.925-62.844-5.004-.453-38.152-3.5-75.796-8.181-6.877-.856-14.168-1.8-21.636-2.82q-.853.971-1.733 1.976c31.167 4.822 62.357 8.324 92.724 10.399zM123.569 18.744C86.76 12.268 62.673 6.086 59.655 5.298L11.241 41.704c26.678 6.319 51.397 12.057 73.507 17.064l6.866-7.08a11.42 11.42 0 01-2.015-5.393c-.895-9.481 11.276-18.877 28.964-22.39l5.006-5.16zM67.886 36.24c-.712.067-1.418.1-2.114.1a17.619 17.619 0 01-7.211-1.415c-2.704-1.23-4.305-3.092-4.509-5.247-.413-4.373 5.017-8.342 12.362-9.036a18.715 18.715 0 019.325 1.316c2.704 1.229 4.305 3.092 4.508 5.247.413 4.372-5.017 8.342-12.361 9.035z" fill="#cedd3e"/><path d="M109.54 64.291c85.212 16.627 105.175 19.864 108.398 20.356l20.442-51.776c-30.392-2.105-61.593-5.63-92.767-10.476l-.972 1.11c12.652 2.31 20.893 8.205 21.587 15.556 1.034 10.952-15.313 21.485-36.44 23.48-2.331.22-4.664.33-6.963.33a65.377 65.377 0 01-11.308-.956q-1.074 1.283-1.976 2.376zm81.93-21a18.723 18.723 0 019.324 1.315c2.704 1.23 4.305 3.093 4.509 5.247.412 4.373-5.017 8.342-12.361 9.036-.711.067-1.419.1-2.114.1a17.62 17.62 0 01-7.212-1.415c-2.703-1.229-4.304-3.093-4.508-5.247-.412-4.373 5.017-8.342 12.362-9.036z" fill="#cedd3e"/><path d="M90.945 46.168a10.016 10.016 0 001.645 4.515l24.279-25.031c-15.927 3.639-26.72 12.08-25.924 20.516z" fill="#94a727"/><path d="M218.185 108.404a.676.676 0 01.005-.949 2.556 2.556 0 00.216-.27l.126-.167a4.756 4.756 0 01-.142-.55 1.623 1.623 0 00-.179-.556.676.676 0 01.141-.954c.23-.167.488-.324.748-.48.774-.468 1.247-.788 1.28-1.277a1.46 1.46 0 01-.206-.212 1.74 1.74 0 01-.549-1.085 14.785 14.785 0 00-.02-.45 3.395 3.395 0 01.117-1.154l.023-.115c.01-.051.808-4.017 2.173-5.967L106.4 68.21a7.563 7.563 0 00-.702 1.033c-.479 1.426.768 12.045 1.82 19.591l109.448 32.278c-.26-1.357-.528-4.487.417-5.705a6.523 6.523 0 01.678-3.39c.645-1.666.975-2.74.124-3.614z" fill="#b5c933"/><path d="M247.669 44.762a.676.676 0 01-.641-.616 4.851 4.851 0 01.487-2.271 5.155 5.155 0 00.385-1.24.953.953 0 00-.159-.412 1.825 1.825 0 01-.163-1.732c-1.33-1.106-.72-2.753-.302-3.888a5.906 5.906 0 00.426-1.521 2.445 2.445 0 00-.631-2.059c-1.936 11.062-22.216 60.847-23.124 63.073a.672.672 0 01-.46.396l-.015.007c-.669.174-1.92 3.497-2.4 5.946l-.023.117a2.321 2.321 0 00-.094.814c.007.114.015.264.023.483l.207.231a1.638 1.638 0 01.545 1.2c-.082 1.229-1.108 1.848-1.931 2.345l-.191.115c.044.15.075.296.105.436a1.826 1.826 0 00.183.575.676.676 0 01-.11.876 1.955 1.955 0 00-.249.293c.99 1.465.329 3.175-.215 4.576a4.724 4.724 0 00-.545 2.91.675.675 0 01-.35.829c-.395.316-.407 2.445-.265 3.835l29.495-71.978a9.103 9.103 0 01.37-1.236c.219-.632.55-1.584.346-1.887-.08-.12-.337-.2-.704-.217z" fill="#abb833"/><path d="M104.42 68.8a9.89 9.89 0 011.125-1.652.654.654 0 01.136-.176c.535-.697 1.224-1.561 2.046-2.571a.646.646 0 01.092-.113 377.23 377.23 0 012.858-3.458.654.654 0 01.049-.058c10.493-12.561 30.881-35.86 36.073-41.784-6.243-.86-12.595-1.773-18.929-2.735L85.72 59.711a.67.67 0 01-.453.466l-4.034 4.159c-.809.98.243 9.621 1.745 17.674l.006.03c.076.407.152.814.23 1.218l23.098 6.71c-.618-4.366-2.614-19.014-1.89-21.168z" fill="#fff"/><path d="M80.262 63.394l.85-.876L3.565 45.06c.152.488.35 1.13.476 1.546a.676.676 0 01-.28.762c-.071.046-.236.163-.234.269.001.145.202.482.745.813a.676.676 0 01.322.627c-.136 1.834.204 2.349 1.215 3.876l.298.452a.677.677 0 01-.077.838c-.363.38-.249 1.144-.149 1.567a6.675 6.675 0 002.255 3.62.673.673 0 01.266.175l73.037 21.54c-1.064-5.856-2.686-16.198-1.178-17.751z" fill="#b5c933"/><path d="M223.321 95.005a1.154 1.154 0 01-.256-.028L105.876 68.594a1.164 1.164 0 11.512-2.271l116.227 26.166c6.399-15.729 21.342-53.564 22.671-61.838-6.427-.585-38.747-3.59-75.306-8.137C132.7 17.878 83.315 10.65 58.898 2.46l-55 40.788 78.794 17.739a1.164 1.164 0 01-.511 2.271L.908 44.963a1.164 1.164 0 01-.437-2.07L58 .229a1.168 1.168 0 011.07-.167C105.081 15.78 245.235 28.31 246.645 28.436a1.164 1.164 0 011.062 1.133c.161 7.094-22.35 62.363-23.309 64.711a1.165 1.165 0 01-1.078.725z" fill="#3e4147"/><path d="M217.76 122.608a1.203 1.203 0 01-1.086-.704c-.2-.442-.98-4.732.2-6.613a7.4 7.4 0 01.732-3.45c.643-1.657.859-2.451.23-3.096a1.165 1.165 0 01.007-1.631 1.613 1.613 0 00.151-.192 7.913 7.913 0 01-.08-.352 2.145 2.145 0 00-.1-.374 1.152 1.152 0 01.251-1.631c.24-.176.51-.34.782-.504a3.677 3.677 0 00.98-.729l-.018-.02a2.17 2.17 0 01-.67-1.393c-.007-.199-.015-.335-.02-.438a3.867 3.867 0 01.125-1.282l.022-.109c.137-.698 1.41-6.836 3.795-7.384a1.164 1.164 0 01.601 2.248c-.618.476-1.704 3.514-2.111 5.585l-.023.11a2.093 2.093 0 00-.087.697c.005.083.012.185.017.32.03.033.06.067.092.1a2.095 2.095 0 01.666 1.557 3.467 3.467 0 01-2.048 2.659c.008.036.016.07.022.103a1.962 1.962 0 00.112.405 1.174 1.174 0 01-.164 1.488c.846 1.59.162 3.357-.36 4.704a4.504 4.504 0 00-.54 2.576 1.162 1.162 0 01-.46 1.346 10.86 10.86 0 00.036 4.388 1.155 1.155 0 01-1.053 1.616z" fill="#3e4147"/><path d="M218.05 123.302a1.162 1.162 0 01-.33-.048L106.582 90.478a1.164 1.164 0 11.658-2.233l110.132 32.479 29.817-72.764a10.172 10.172 0 01.378-1.255 6.526 6.526 0 00.384-1.416 1.536 1.536 0 00-.303-.039 1.164 1.164 0 01-1.104-1.062 5.253 5.253 0 01.52-2.495 5.265 5.265 0 00.343-1.051c-.021-.05-.063-.13-.095-.19a2.395 2.395 0 01-.303-1.823c-1.255-1.308-.581-3.134-.19-4.195a5.73 5.73 0 00.397-1.38c.072-1.22-.214-1.517-1.436-2.581a1.164 1.164 0 111.53-1.756c1.272 1.11 2.372 2.066 2.23 4.474a7.227 7.227 0 01-.536 2.05c-.622 1.683-.456 1.766.037 2.013a1.164 1.164 0 01.344 1.82 1.265 1.265 0 00-.1.125c.024.05.056.112.083.162a2.43 2.43 0 01.36 1.499 6.722 6.722 0 01-.503 1.698c-.09.223-.173.433-.239.634a2.12 2.12 0 01.913.756c.721 1.067.248 2.428-.133 3.522a7.607 7.607 0 00-.308 1.016 1.159 1.159 0 01-.07.248l-30.26 73.845a1.165 1.165 0 01-1.077.723zM82.313 83.27a1.168 1.168 0 01-.33-.047L7.334 61.208a1.165 1.165 0 01-.724-.618 9.509 9.509 0 01-2.52-4.36 3.952 3.952 0 01.075-2.426A6.348 6.348 0 012.729 49.6a2.65 2.65 0 01-1.042-1.94 1.997 1.997 0 01.387-1.2 146.92 146.92 0 00-.447-1.427 1.164 1.164 0 112.213-.722c.102.313.474 1.508.669 2.155a1.163 1.163 0 01-.392 1.247 1.99 1.99 0 00.41.32 1.165 1.165 0 01.555 1.08c-.124 1.668.143 2.07 1.134 3.57l.3.457a1.163 1.163 0 01-.133 1.441c-.088.093-.16.38-.073.886a6.602 6.602 0 002.014 3.515 1.15 1.15 0 01.342.192L82.641 80.99a1.164 1.164 0 01-.328 2.28z" fill="#3e4147"/><path d="M107.129 92.075a1.2 1.2 0 01-.325-.045l-24.501-7.12a1.166 1.166 0 01-.818-.893c-1.681-8.57-3.32-19.162-1.573-20.963l46.87-48.322a1.164 1.164 0 011.671 1.62L81.63 64.627c-.665 1.435.499 10.404 2.005 18.246l22.087 6.418c-.838-5.95-2.482-18.51-1.764-20.645.79-2.347 33.34-39.568 43.299-50.92a1.164 1.164 0 111.75 1.536c-16.626 18.953-41.763 47.96-42.867 50.19-.392 1.302.773 11.869 2.141 21.293a1.165 1.165 0 01-1.152 1.331z" fill="#3e4147"/><path d="M85.071 60.7a1.165 1.165 0 01-.258-.029c-22.642-5.127-48.01-11.017-75.399-17.509a1.164 1.164 0 01-.43-2.063L58.811 3.63a1.172 1.172 0 01.999-.194c.25.067 25.478 6.753 65.333 13.717a1.164 1.164 0 01-.4 2.293C88.018 13.03 63.661 6.843 59.76 5.83L12.365 41.47c26.458 6.264 50.994 11.958 72.962 16.932a1.164 1.164 0 01-.256 2.298zM218.371 86.558a1.18 1.18 0 01-.154-.01c-.132-.017-14.364-1.974-110.136-20.667a1.164 1.164 0 01.445-2.285C191.8 79.85 213.371 83.44 217.628 84.105l20.055-50.793c-30.314-2.12-61.429-5.647-92.513-10.49a1.164 1.164 0 11.36-2.301c31.559 4.918 63.152 8.476 93.899 10.578a1.164 1.164 0 011.004 1.589l-20.98 53.134a1.166 1.166 0 01-1.082.736z" fill="#3e4147"/><path d="M190.802 59.479c-6.605 0-11.783-2.914-12.18-7.107-.437-4.644 5.185-8.847 12.8-9.567 7.621-.715 13.928 2.358 14.367 7.003.438 4.645-5.185 8.848-12.802 9.567a23.52 23.52 0 01-2.185.104zm-9.862-7.325c.306 3.233 5.722 5.483 11.829 4.903 6.106-.576 11.007-3.796 10.702-7.03-.306-3.234-5.727-5.482-11.83-4.904-6.105.577-11.006 3.796-10.7 7.03zM65.743 36.83c-6.603 0-11.78-2.915-12.177-7.107-.437-4.647 5.185-8.849 12.801-9.567 7.62-.72 13.927 2.356 14.366 7.002.438 4.646-5.185 8.848-12.801 9.567-.743.07-1.475.104-2.189.104zm-9.858-7.326c.305 3.234 5.723 5.482 11.828 4.902 6.106-.576 11.008-3.795 10.702-7.03s-5.727-5.486-11.829-4.902c-6.105.576-11.007 3.796-10.701 7.03zM122.823 63.358a65.682 65.682 0 01-11.785-1.025 1.164 1.164 0 01.42-2.289 67.118 67.118 0 0018.157.664c9.875-.931 18.956-3.758 25.572-7.957 6.378-4.049 9.649-8.85 9.208-13.517-.624-6.606-8.957-12.152-21.23-14.128a1.164 1.164 0 01.37-2.3c13.559 2.185 22.44 8.395 23.178 16.209.527 5.583-3.123 11.16-10.278 15.702-6.92 4.392-16.367 7.343-26.601 8.31a75.03 75.03 0 01-7.01.33zM92.49 52.923a1.163 1.163 0 01-.935-.469 12.061 12.061 0 01-2.442-6.113c-.923-9.772 11.51-19.428 29.563-22.958a1.164 1.164 0 11.447 2.285c-16.854 3.295-28.5 11.898-27.691 20.454a9.767 9.767 0 001.99 4.942 1.164 1.164 0 01-.933 1.86z" fill="#3e4147"/></g></g></svg>
